<?xml version="1.0" encoding="iso-8859-1"?>
<!-- Uploaded to: SVG Repo, www.svgrepo.com, Generator: SVG Repo Mixer Tools -->
<svg height="800px" width="800px" version="1.1" id="Layer_1" xmlns="http://www.w3.org/2000/svg" xmlns:xlink="http://www.w3.org/1999/xlink" 
	 viewBox="0 0 483.2 483.2" xml:space="preserve">
<path style="fill:#42210B;" d="M483.2,378.4v20c0,4.8-3.2,8-8,8H356c-0.8,0-2.4,0-3.2-0.8c-2.4-1.6-4.8-4-4.8-7.2v-20
	c0-18.4,8-34.4,20-45.6c-0.8-4-1.6-8-1.6-12.8c0-27.2,21.6-48.8,48.8-48.8c2.4,0,4,0,5.6,0c24,3.2,43.2,23.2,43.2,48
	c0,27.2-21.6,48.8-48.8,48.8c-16,0-31.2-8-40-20.8c-7.2,8-12,18.4-12,30.4v12.8h103.2v-12.8c0-4-0.8-8-1.6-12
	c-0.8-2.4,0-5.6,2.4-7.2c4-4,12-2.4,13.6,4C482.4,368,483.2,372.8,483.2,378.4z M448.8,320c0-18.4-14.4-32.8-32.8-32.8
	s-32.8,14.4-32.8,32.8c0,18.4,14.4,32.8,32.8,32.8C433.6,352.8,448.8,338.4,448.8,320z"/>
<path style="fill:#2FB4C2;" d="M416,287.2c18.4,0,32.8,14.4,32.8,32.8c0,18.4-14.4,32.8-32.8,32.8s-32.8-15.2-32.8-32.8
	C383.2,301.6,397.6,287.2,416,287.2z"/>
<g>
	<path style="fill:#42210B;" d="M433.6,248.8c0,0.8,0,0.8,0,0.8c0,4-3.2,8-8,8c-0.8,0-0.8,0-1.6,0c-3.2-0.8-5.6-3.2-6.4-6.4
		c-5.6-34.4-20.8-64.8-42.4-89.6c-2.4-2.4-2.4-6.4-0.8-9.6l0.8-0.8l0,0c3.2-3.2,8-3.2,11.2,0C410.4,177.6,427.2,211.2,433.6,248.8z"
		/>
	<path style="fill:#42210B;" d="M365.6,130.4c3.2,3.2,4,8.8,0,12c-1.6,1.6-3.2,2.4-5.6,2.4c-1.6,0-4-0.8-5.6-1.6
		c-6.4-4.8-12.8-10.4-20-14.4c-2.4-1.6-4-4-4-6.4c0-6.4,6.4-10.4,12-6.4C351.2,119.2,359.2,124.8,365.6,130.4z"/>
	<path style="fill:#42210B;" d="M350.4,426.4c3.2,3.2,3.2,9.6-0.8,12c-30.4,20-66.4,32-105.6,32c-40,0-77.6-12-108-33.6
		c-4-2.4-4-8.8-0.8-12l0,0c0.8,0,0.8-0.8,1.6-0.8c2.4-1.6,6.4-1.6,8.8,0c28,19.2,62.4,30.4,99.2,30.4c36,0,68.8-10.4,96-28.8
		c1.6-0.8,3.2-1.6,4.8-1.6C347.2,424,348.8,424.8,350.4,426.4L350.4,426.4z"/>
	<path style="fill:#42210B;" d="M316,121.6v19.2c0,4-3.2,8-8,8H188.8c-4,0-8-3.2-8-8V120c0-0.8,0-2.4,0-4
		c0.8-16.8,8.8-31.2,20.8-41.6c-1.6-4-1.6-8.8-1.6-12.8c0-27.2,21.6-48.8,48.8-48.8c27.2,0,48.8,21.6,48.8,48.8
		s-21.6,48.8-48.8,48.8c-16.8,0-31.2-8-40-20.8c-7.2,8-12,18.4-12,30.4v12.8H300V120c0-4.8-0.8-9.6-2.4-14.4c-0.8-2.4,0-5.6,1.6-8
		l0.8-0.8c4-4,10.4-2.4,12,3.2c2.4,6.4,3.2,12.8,3.2,20v1.6H316z M281.6,61.6c0-18.4-14.4-32.8-32.8-32.8
		c-18.4,0-32.8,14.4-32.8,32.8s14.4,32.8,32.8,32.8C266.4,94.4,281.6,80,281.6,61.6z"/>
</g>
<path style="fill:#2FB4C2;" d="M248.8,28.8c18.4,0,32.8,14.4,32.8,32.8s-14.4,32.8-32.8,32.8S216,80,216,61.6
	C216,43.2,230.4,28.8,248.8,28.8z"/>
<g>
	<path style="fill:#42210B;" d="M168,115.2c0,3.2-1.6,5.6-4,7.2c-49.6,25.6-85.6,74.4-93.6,132c-0.8,4-4,7.2-8,7.2l0,0
		c-4.8,0-8.8-4-8-8.8c8.8-62.4,48-116,101.6-144C161.6,105.6,168,108.8,168,115.2z"/>
	<path style="fill:#42210B;" d="M135.2,378.4v20c0,4.8-4,8-8,8H8c-4,0-8-3.2-8-8v-20C0,360,8,344,20,332.8c-0.8-4-1.6-8-1.6-12.8
		c0-25.6,19.2-46.4,44-48.8c1.6,0,3.2,0,4.8,0c27.2,0,48.8,21.6,48.8,48.8c0,27.2-21.6,48.8-48.8,48.8c-16.8,0-31.2-8-40-20.8
		c-7.2,8-12,18.4-12,30.4v12.8h103.2v-12.8c0-4.8-0.8-9.6-2.4-14.4c-0.8-2.4,0-5.6,1.6-7.2l1.6-1.6c4-4,10.4-2.4,12,3.2
		C134.4,364.8,135.2,371.2,135.2,378.4z M100.8,320c0-18.4-15.2-32.8-32.8-32.8c-18.4,0-32.8,14.4-32.8,32.8
		c0,18.4,14.4,32.8,32.8,32.8C85.6,352.8,100.8,338.4,100.8,320z"/>
</g>
<path style="fill:#2FB4C2;" d="M68,287.2c18.4,0,32.8,14.4,32.8,32.8c0,18.4-15.2,32.8-32.8,32.8c-18.4,0-32.8-15.2-32.8-32.8
	C35.2,301.6,49.6,287.2,68,287.2z"/>
</svg>