<?xml version="1.0" encoding="iso-8859-1"?>
<!-- Uploaded to: SVG Repo, www.svgrepo.com, Generator: SVG Repo Mixer Tools -->
<svg version="1.1" id="Layer_1" xmlns="http://www.w3.org/2000/svg" xmlns:xlink="http://www.w3.org/1999/xlink" 
	 viewBox="0 0 512 512" xml:space="preserve">
<rect x="17.655" y="52.966" style="fill:#8F96AC;" width="476.69" height="264.83"/>
<path style="fill:#707487;" d="M498.759,52.966H13.241c-2.438,0-4.414-1.976-4.414-4.414V30.897c0-2.438,1.976-4.414,4.414-4.414
	h485.517c2.438,0,4.414,1.976,4.414,4.414v17.655C503.172,50.989,501.196,52.966,498.759,52.966z"/>
<rect x="97.1" y="370.76" style="fill:#B4E1FA;" width="317.79" height="105.93"/>
<polygon style="fill:#DAF0FD;" points="229.596,370.759 203.113,370.759 268.69,485.517 295.172,485.517 "/>
<g>
	<polygon style="fill:#A0D2F0;" points="176.552,370.759 132.414,370.759 196.966,485.517 241.103,485.517 	"/>
	<polygon style="fill:#A0D2F0;" points="323.862,370.759 279.724,370.759 344.276,485.517 388.414,485.517 	"/>
	<rect x="97.1" y="370.76" style="fill:#A0D2F0;" width="317.79" height="26.483"/>
</g>
<polygon style="fill:#B4E1FA;" points="244.729,397.241 229.596,370.759 203.113,370.759 218.247,397.241 "/>
<g>
	<rect x="247.17" y="379.59" style="fill:#9FA7BF;" width="17.655" height="97.1"/>
	<rect x="317.79" y="379.59" style="fill:#9FA7BF;" width="17.655" height="97.1"/>
	<rect x="176.55" y="379.59" style="fill:#9FA7BF;" width="17.655" height="97.1"/>
	<rect x="105.93" y="379.59" style="fill:#9FA7BF;" width="17.655" height="97.1"/>
	<rect x="388.41" y="379.59" style="fill:#9FA7BF;" width="17.655" height="97.1"/>
</g>
<path style="fill:#8F96AC;" d="M17.655,353.103V476.69h88.276v-88.276c0-4.875,3.953-8.828,8.828-8.828h286.897
	c2.438,0,4.414,1.976,4.414,4.414v92.69h88.276V353.103H17.655z"/>
<path style="fill:#C7CFE2;" d="M498.759,361.931H13.241c-2.438,0-4.414-1.976-4.414-4.414v-44.138c0-2.438,1.976-4.414,4.414-4.414
	h485.517c2.438,0,4.414,1.976,4.414,4.414v44.138C503.172,359.955,501.196,361.931,498.759,361.931z"/>
<path style="fill:#707487;" d="M459.034,282.483H52.966c-9.751,0-17.655-7.904-17.655-17.655v-17.655
	c0-9.751,7.904-17.655,17.655-17.655h406.069c9.751,0,17.655,7.904,17.655,17.655v17.655
	C476.69,274.579,468.786,282.483,459.034,282.483z"/>
<path style="fill:#B4E1FA;" d="M308.966,282.483H203.034c-4.875,0-8.828-3.953-8.828-8.828v-35.31c0-4.875,3.953-8.828,8.828-8.828
	h105.931c4.875,0,8.828,3.953,8.828,8.828v35.31C317.793,278.53,313.841,282.483,308.966,282.483z"/>
<g>
	<path style="fill:#A0D2F0;" d="M308.966,229.517H203.034c-4.875,0-8.828,3.953-8.828,8.828V256c0-4.875,3.953-8.828,8.828-8.828
		h105.931c4.875,0,8.828,3.953,8.828,8.828v-17.655C317.793,233.47,313.841,229.517,308.966,229.517z"/>
	<polygon style="fill:#A0D2F0;" points="231.172,238.345 201.379,238.345 226.207,282.483 256,282.483 	"/>
</g>
<path style="fill:#DAF0FD;" d="M259.784,229.517l30.265,52.966h18.916c2.39,0,4.542-0.969,6.132-2.511l-28.831-50.454h-26.482
	V229.517z"/>
<polygon style="fill:#B4E1FA;" points="296.354,247.172 286.266,229.517 259.784,229.517 269.871,247.172 "/>
<rect x="247.17" y="229.52" style="fill:#9FA7BF;" width="17.655" height="52.966"/>
<path style="fill:#B4E1FA;" d="M450.207,282.483H344.276c-4.875,0-8.828-3.953-8.828-8.828v-35.31c0-4.875,3.953-8.828,8.828-8.828
	h105.931c4.875,0,8.828,3.953,8.828,8.828v35.31C459.034,278.53,455.082,282.483,450.207,282.483z"/>
<g>
	<path style="fill:#A0D2F0;" d="M450.207,229.517H344.276c-4.875,0-8.828,3.953-8.828,8.828V256c0-4.875,3.953-8.828,8.828-8.828
		h105.931c4.875,0,8.828,3.953,8.828,8.828v-17.655C459.034,233.47,455.082,229.517,450.207,229.517z"/>
	<polygon style="fill:#A0D2F0;" points="372.414,238.345 342.621,238.345 367.448,282.483 397.241,282.483 	"/>
</g>
<path style="fill:#DAF0FD;" d="M401.025,229.517l30.265,52.966h18.916c2.39,0,4.542-0.969,6.132-2.511l-28.831-50.454h-26.482
	V229.517z"/>
<polygon style="fill:#B4E1FA;" points="437.596,247.172 427.508,229.517 401.025,229.517 411.113,247.172 "/>
<rect x="388.41" y="229.52" style="fill:#9FA7BF;" width="17.655" height="52.966"/>
<path style="fill:#B4E1FA;" d="M167.724,282.483H61.793c-4.875,0-8.828-3.953-8.828-8.828v-35.31c0-4.875,3.953-8.828,8.828-8.828
	h105.931c4.875,0,8.828,3.953,8.828,8.828v35.31C176.552,278.53,172.599,282.483,167.724,282.483z"/>
<g>
	<path style="fill:#A0D2F0;" d="M167.724,229.517H61.793c-4.875,0-8.828,3.953-8.828,8.828V256c0-4.875,3.953-8.828,8.828-8.828
		h105.931c4.875,0,8.828,3.953,8.828,8.828v-17.655C176.552,233.47,172.599,229.517,167.724,229.517z"/>
	<polygon style="fill:#A0D2F0;" points="89.931,238.345 60.138,238.345 84.966,282.483 114.759,282.483 	"/>
</g>
<path style="fill:#DAF0FD;" d="M118.542,229.517l30.265,52.966h18.916c2.39,0,4.542-0.969,6.132-2.511l-28.831-50.454h-26.482
	V229.517z"/>
<polygon style="fill:#B4E1FA;" points="155.113,247.172 145.025,229.517 118.542,229.517 128.63,247.172 "/>
<rect x="105.93" y="229.52" style="fill:#9FA7BF;" width="17.655" height="52.966"/>
<path style="fill:#707487;" d="M459.034,203.034H52.966c-9.751,0-17.655-7.904-17.655-17.655v-17.655
	c0-9.751,7.904-17.655,17.655-17.655h406.069c9.751,0,17.655,7.904,17.655,17.655v17.655
	C476.69,195.13,468.786,203.034,459.034,203.034z"/>
<path style="fill:#B4E1FA;" d="M308.966,203.034H203.034c-4.875,0-8.828-3.953-8.828-8.828v-35.31c0-4.875,3.953-8.828,8.828-8.828
	h105.931c4.875,0,8.828,3.953,8.828,8.828v35.31C317.793,199.082,313.841,203.034,308.966,203.034z"/>
<g>
	<path style="fill:#A0D2F0;" d="M308.966,150.069H203.034c-4.875,0-8.828,3.953-8.828,8.828v17.655c0-4.875,3.953-8.828,8.828-8.828
		h105.931c4.875,0,8.828,3.953,8.828,8.828v-17.655C317.793,154.022,313.841,150.069,308.966,150.069z"/>
	<polygon style="fill:#A0D2F0;" points="231.172,158.897 201.379,158.897 226.207,203.034 256,203.034 	"/>
</g>
<path style="fill:#DAF0FD;" d="M259.784,150.069l30.265,52.966h18.916c2.39,0,4.542-0.969,6.132-2.511l-28.831-50.454h-26.482
	V150.069z"/>
<polygon style="fill:#B4E1FA;" points="296.354,167.724 286.266,150.069 259.784,150.069 269.871,167.724 "/>
<rect x="247.17" y="150.07" style="fill:#9FA7BF;" width="17.655" height="52.966"/>
<path style="fill:#B4E1FA;" d="M450.207,203.034H344.276c-4.875,0-8.828-3.953-8.828-8.828v-35.31c0-4.875,3.953-8.828,8.828-8.828
	h105.931c4.875,0,8.828,3.953,8.828,8.828v35.31C459.034,199.082,455.082,203.034,450.207,203.034z"/>
<g>
	<path style="fill:#A0D2F0;" d="M450.207,150.069H344.276c-4.875,0-8.828,3.953-8.828,8.828v17.655c0-4.875,3.953-8.828,8.828-8.828
		h105.931c4.875,0,8.828,3.953,8.828,8.828v-17.655C459.034,154.022,455.082,150.069,450.207,150.069z"/>
	<polygon style="fill:#A0D2F0;" points="372.414,158.897 342.621,158.897 367.448,203.034 397.241,203.034 	"/>
</g>
<path style="fill:#DAF0FD;" d="M401.025,150.069l30.265,52.966h18.916c2.39,0,4.542-0.969,6.132-2.511l-28.831-50.454h-26.482
	V150.069z"/>
<polygon style="fill:#B4E1FA;" points="437.596,167.724 427.508,150.069 401.025,150.069 411.113,167.724 "/>
<rect x="388.41" y="150.07" style="fill:#9FA7BF;" width="17.655" height="52.966"/>
<path style="fill:#B4E1FA;" d="M167.724,203.034H61.793c-4.875,0-8.828-3.953-8.828-8.828v-35.31c0-4.875,3.953-8.828,8.828-8.828
	h105.931c4.875,0,8.828,3.953,8.828,8.828v35.31C176.552,199.082,172.599,203.034,167.724,203.034z"/>
<g>
	<path style="fill:#A0D2F0;" d="M167.724,150.069H61.793c-4.875,0-8.828,3.953-8.828,8.828v17.655c0-4.875,3.953-8.828,8.828-8.828
		h105.931c4.875,0,8.828,3.953,8.828,8.828v-17.655C176.552,154.022,172.599,150.069,167.724,150.069z"/>
	<polygon style="fill:#A0D2F0;" points="89.931,158.897 60.138,158.897 84.966,203.034 114.759,203.034 	"/>
</g>
<path style="fill:#DAF0FD;" d="M118.542,150.069l30.265,52.966h18.916c2.39,0,4.542-0.969,6.132-2.511l-28.831-50.454h-26.482
	V150.069z"/>
<polygon style="fill:#B4E1FA;" points="155.113,167.724 145.025,150.069 118.542,150.069 128.63,167.724 "/>
<rect x="105.93" y="150.07" style="fill:#9FA7BF;" width="17.655" height="52.966"/>
<path style="fill:#707487;" d="M459.034,123.586H52.966c-9.751,0-17.655-7.904-17.655-17.655V88.276
	c0-9.751,7.904-17.655,17.655-17.655h406.069c9.751,0,17.655,7.904,17.655,17.655v17.655
	C476.69,115.682,468.786,123.586,459.034,123.586z"/>
<path style="fill:#B4E1FA;" d="M308.966,123.586H203.034c-4.875,0-8.828-3.953-8.828-8.828v-35.31c0-4.875,3.953-8.828,8.828-8.828
	h105.931c4.875,0,8.828,3.953,8.828,8.828v35.31C317.793,119.634,313.841,123.586,308.966,123.586z"/>
<g>
	<path style="fill:#A0D2F0;" d="M308.966,70.621H203.034c-4.875,0-8.828,3.953-8.828,8.828v17.655c0-4.875,3.953-8.828,8.828-8.828
		h105.931c4.875,0,8.828,3.953,8.828,8.828V79.448C317.793,74.573,313.841,70.621,308.966,70.621z"/>
	<polygon style="fill:#A0D2F0;" points="231.172,79.448 201.379,79.448 226.207,123.586 256,123.586 	"/>
</g>
<path style="fill:#DAF0FD;" d="M259.784,70.621l30.265,52.966h18.916c2.39,0,4.542-0.969,6.132-2.511l-28.831-50.454h-26.482V70.621
	z"/>
<polygon style="fill:#B4E1FA;" points="296.354,88.276 286.266,70.621 259.784,70.621 269.871,88.276 "/>
<rect x="247.17" y="70.62" style="fill:#9FA7BF;" width="17.655" height="52.966"/>
<path style="fill:#B4E1FA;" d="M450.207,123.586H344.276c-4.875,0-8.828-3.953-8.828-8.828v-35.31c0-4.875,3.953-8.828,8.828-8.828
	h105.931c4.875,0,8.828,3.953,8.828,8.828v35.31C459.034,119.634,455.082,123.586,450.207,123.586z"/>
<g>
	<path style="fill:#A0D2F0;" d="M450.207,70.621H344.276c-4.875,0-8.828,3.953-8.828,8.828v17.655c0-4.875,3.953-8.828,8.828-8.828
		h105.931c4.875,0,8.828,3.953,8.828,8.828V79.448C459.034,74.573,455.082,70.621,450.207,70.621z"/>
	<polygon style="fill:#A0D2F0;" points="372.414,79.448 342.621,79.448 367.448,123.586 397.241,123.586 	"/>
</g>
<path style="fill:#DAF0FD;" d="M401.025,70.621l30.265,52.966h18.916c2.39,0,4.542-0.969,6.132-2.511l-28.831-50.454h-26.482V70.621
	z"/>
<polygon style="fill:#B4E1FA;" points="437.596,88.276 427.508,70.621 401.025,70.621 411.113,88.276 "/>
<rect x="388.41" y="70.62" style="fill:#9FA7BF;" width="17.655" height="52.966"/>
<path style="fill:#B4E1FA;" d="M167.724,123.586H61.793c-4.875,0-8.828-3.953-8.828-8.828v-35.31c0-4.875,3.953-8.828,8.828-8.828
	h105.931c4.875,0,8.828,3.953,8.828,8.828v35.31C176.552,119.634,172.599,123.586,167.724,123.586z"/>
<g>
	<path style="fill:#A0D2F0;" d="M167.724,70.621H61.793c-4.875,0-8.828,3.953-8.828,8.828v17.655c0-4.875,3.953-8.828,8.828-8.828
		h105.931c4.875,0,8.828,3.953,8.828,8.828V79.448C176.552,74.573,172.599,70.621,167.724,70.621z"/>
	<polygon style="fill:#A0D2F0;" points="89.931,79.448 60.138,79.448 84.966,123.586 114.759,123.586 	"/>
</g>
<path style="fill:#DAF0FD;" d="M118.542,70.621l30.265,52.966h18.916c2.39,0,4.542-0.969,6.132-2.511l-28.831-50.454h-26.482V70.621
	z"/>
<polygon style="fill:#B4E1FA;" points="155.113,88.276 145.025,70.621 118.542,70.621 128.63,88.276 "/>
<rect x="105.93" y="70.62" style="fill:#9FA7BF;" width="17.655" height="52.966"/>
<path style="fill:#8F96AC;" d="M507.586,485.517H4.414c-2.438,0-4.414-1.976-4.414-4.414v-8.828c0-2.438,1.976-4.414,4.414-4.414
	h503.172c2.438,0,4.414,1.976,4.414,4.414v8.828C512,483.541,510.024,485.517,507.586,485.517z"/>
</svg>